<?xml version="1.0" encoding="UTF-8" ?>
<svg version="1.1" width="320" height="320" xmlns="http://www.w3.org/2000/svg" shape-rendering="crispEdges">
<rect x="20" y="150" width="10" height="10" fill="#45283C" />
<rect x="30" y="150" width="10" height="10" fill="#45283C" />
<rect x="40" y="150" width="10" height="10" fill="#45283C" />
<rect x="50" y="150" width="10" height="10" fill="#45283C" />
<rect x="60" y="150" width="10" height="10" fill="#45283C" />
<rect x="70" y="150" width="10" height="10" fill="#45283C" />
<rect x="80" y="150" width="10" height="10" fill="#45283C" />
<rect x="90" y="150" width="10" height="10" fill="#45283C" />
<rect x="100" y="150" width="10" height="10" fill="#45283C" />
<rect x="110" y="150" width="10" height="10" fill="#45283C" />
<rect x="120" y="150" width="10" height="10" fill="#45283C" />
<rect x="130" y="150" width="10" height="10" fill="#45283C" />
<rect x="140" y="150" width="10" height="10" fill="#45283C" />
<rect x="150" y="150" width="10" height="10" fill="#45283C" />
<rect x="160" y="150" width="10" height="10" fill="#45283C" />
<rect x="170" y="150" width="10" height="10" fill="#45283C" />
<rect x="180" y="150" width="10" height="10" fill="#45283C" />
<rect x="190" y="150" width="10" height="10" fill="#45283C" />
<rect x="200" y="150" width="10" height="10" fill="#45283C" />
<rect x="210" y="150" width="10" height="10" fill="#45283C" />
<rect x="220" y="150" width="10" height="10" fill="#45283C" />
<rect x="230" y="150" width="10" height="10" fill="#45283C" />
<rect x="240" y="150" width="10" height="10" fill="#45283C" />
<rect x="250" y="150" width="10" height="10" fill="#45283C" />
<rect x="260" y="150" width="10" height="10" fill="#45283C" />
<rect x="270" y="150" width="10" height="10" fill="#45283C" />
<rect x="280" y="150" width="10" height="10" fill="#45283C" />
<rect x="290" y="150" width="10" height="10" fill="#45283C" />
<rect x="20" y="160" width="10" height="10" fill="#45283C" />
<rect x="30" y="160" width="10" height="10" fill="#EEC39A" />
<rect x="40" y="160" width="10" height="10" fill="#EEC39A" />
<rect x="50" y="160" width="10" height="10" fill="#EEC39A" />
<rect x="60" y="160" width="10" height="10" fill="#EEC39A" />
<rect x="70" y="160" width="10" height="10" fill="#EEC39A" />
<rect x="80" y="160" width="10" height="10" fill="#EEC39A" />
<rect x="90" y="160" width="10" height="10" fill="#EEC39A" />
<rect x="100" y="160" width="10" height="10" fill="#EEC39A" />
<rect x="110" y="160" width="10" height="10" fill="#EEC39A" />
<rect x="120" y="160" width="10" height="10" fill="#EEC39A" />
<rect x="130" y="160" width="10" height="10" fill="#EEC39A" />
<rect x="140" y="160" width="10" height="10" fill="#45283C" />
<rect x="150" y="160" width="10" height="10" fill="#D95763" />
<rect x="160" y="160" width="10" height="10" fill="#D95763" />
<rect x="170" y="160" width="10" height="10" fill="#D95763" />
<rect x="180" y="160" width="10" height="10" fill="#45283C" />
<rect x="190" y="160" width="10" height="10" fill="#EEC39A" />
<rect x="200" y="160" width="10" height="10" fill="#EEC39A" />
<rect x="210" y="160" width="10" height="10" fill="#EEC39A" />
<rect x="220" y="160" width="10" height="10" fill="#EEC39A" />
<rect x="230" y="160" width="10" height="10" fill="#EEC39A" />
<rect x="240" y="160" width="10" height="10" fill="#EEC39A" />
<rect x="250" y="160" width="10" height="10" fill="#EEC39A" />
<rect x="260" y="160" width="10" height="10" fill="#EEC39A" />
<rect x="270" y="160" width="10" height="10" fill="#EEC39A" />
<rect x="280" y="160" width="10" height="10" fill="#EEC39A" />
<rect x="290" y="160" width="10" height="10" fill="#45283C" />
<rect x="20" y="170" width="10" height="10" fill="#45283C" />
<rect x="30" y="170" width="10" height="10" fill="#EEC39A" />
<rect x="40" y="170" width="10" height="10" fill="#EEC39A" />
<rect x="50" y="170" width="10" height="10" fill="#EEC39A" />
<rect x="60" y="170" width="10" height="10" fill="#EEC39A" />
<rect x="70" y="170" width="10" height="10" fill="#EEC39A" />
<rect x="80" y="170" width="10" height="10" fill="#EEC39A" />
<rect x="90" y="170" width="10" height="10" fill="#EEC39A" />
<rect x="100" y="170" width="10" height="10" fill="#EEC39A" />
<rect x="110" y="170" width="10" height="10" fill="#EEC39A" />
<rect x="120" y="170" width="10" height="10" fill="#EEC39A" />
<rect x="130" y="170" width="10" height="10" fill="#EEC39A" />
<rect x="140" y="170" width="10" height="10" fill="#45283C" />
<rect x="150" y="170" width="10" height="10" fill="#D95763" />
<rect x="160" y="170" width="10" height="10" fill="#D95763" />
<rect x="170" y="170" width="10" height="10" fill="#D95763" />
<rect x="180" y="170" width="10" height="10" fill="#45283C" />
<rect x="190" y="170" width="10" height="10" fill="#EEC39A" />
<rect x="200" y="170" width="10" height="10" fill="#EEC39A" />
<rect x="210" y="170" width="10" height="10" fill="#EEC39A" />
<rect x="220" y="170" width="10" height="10" fill="#EEC39A" />
<rect x="230" y="170" width="10" height="10" fill="#EEC39A" />
<rect x="240" y="170" width="10" height="10" fill="#EEC39A" />
<rect x="250" y="170" width="10" height="10" fill="#EEC39A" />
<rect x="260" y="170" width="10" height="10" fill="#EEC39A" />
<rect x="270" y="170" width="10" height="10" fill="#EEC39A" />
<rect x="280" y="170" width="10" height="10" fill="#EEC39A" />
<rect x="290" y="170" width="10" height="10" fill="#45283C" />
<rect x="20" y="180" width="10" height="10" fill="#45283C" />
<rect x="30" y="180" width="10" height="10" fill="#45283C" />
<rect x="40" y="180" width="10" height="10" fill="#45283C" />
<rect x="50" y="180" width="10" height="10" fill="#45283C" />
<rect x="60" y="180" width="10" height="10" fill="#45283C" />
<rect x="70" y="180" width="10" height="10" fill="#45283C" />
<rect x="80" y="180" width="10" height="10" fill="#45283C" />
<rect x="90" y="180" width="10" height="10" fill="#45283C" />
<rect x="100" y="180" width="10" height="10" fill="#45283C" />
<rect x="110" y="180" width="10" height="10" fill="#45283C" />
<rect x="120" y="180" width="10" height="10" fill="#45283C" />
<rect x="130" y="180" width="10" height="10" fill="#45283C" />
<rect x="140" y="180" width="10" height="10" fill="#45283C" />
<rect x="150" y="180" width="10" height="10" fill="#D95763" />
<rect x="160" y="180" width="10" height="10" fill="#D95763" />
<rect x="170" y="180" width="10" height="10" fill="#D95763" />
<rect x="180" y="180" width="10" height="10" fill="#45283C" />
<rect x="190" y="180" width="10" height="10" fill="#45283C" />
<rect x="200" y="180" width="10" height="10" fill="#45283C" />
<rect x="210" y="180" width="10" height="10" fill="#45283C" />
<rect x="220" y="180" width="10" height="10" fill="#45283C" />
<rect x="230" y="180" width="10" height="10" fill="#45283C" />
<rect x="240" y="180" width="10" height="10" fill="#45283C" />
<rect x="250" y="180" width="10" height="10" fill="#45283C" />
<rect x="260" y="180" width="10" height="10" fill="#45283C" />
<rect x="270" y="180" width="10" height="10" fill="#45283C" />
<rect x="280" y="180" width="10" height="10" fill="#45283C" />
<rect x="290" y="180" width="10" height="10" fill="#45283C" />
<rect x="20" y="190" width="10" height="10" fill="#45283C" />
<rect x="30" y="190" width="10" height="10" fill="#D95763" />
<rect x="40" y="190" width="10" height="10" fill="#D95763" />
<rect x="50" y="190" width="10" height="10" fill="#D95763" />
<rect x="60" y="190" width="10" height="10" fill="#D95763" />
<rect x="70" y="190" width="10" height="10" fill="#D95763" />
<rect x="80" y="190" width="10" height="10" fill="#D95763" />
<rect x="90" y="190" width="10" height="10" fill="#D95763" />
<rect x="100" y="190" width="10" height="10" fill="#D95763" />
<rect x="110" y="190" width="10" height="10" fill="#D95763" />
<rect x="120" y="190" width="10" height="10" fill="#D95763" />
<rect x="130" y="190" width="10" height="10" fill="#D95763" />
<rect x="140" y="190" width="10" height="10" fill="#D95763" />
<rect x="150" y="190" width="10" height="10" fill="#D95763" />
<rect x="160" y="190" width="10" height="10" fill="#D95763" />
<rect x="170" y="190" width="10" height="10" fill="#D95763" />
<rect x="180" y="190" width="10" height="10" fill="#D95763" />
<rect x="190" y="190" width="10" height="10" fill="#D95763" />
<rect x="200" y="190" width="10" height="10" fill="#D95763" />
<rect x="210" y="190" width="10" height="10" fill="#D95763" />
<rect x="220" y="190" width="10" height="10" fill="#D95763" />
<rect x="230" y="190" width="10" height="10" fill="#D95763" />
<rect x="240" y="190" width="10" height="10" fill="#D95763" />
<rect x="250" y="190" width="10" height="10" fill="#D95763" />
<rect x="260" y="190" width="10" height="10" fill="#D95763" />
<rect x="270" y="190" width="10" height="10" fill="#D95763" />
<rect x="280" y="190" width="10" height="10" fill="#D95763" />
<rect x="290" y="190" width="10" height="10" fill="#45283C" />
<rect x="20" y="200" width="10" height="10" fill="#45283C" />
<rect x="30" y="200" width="10" height="10" fill="#D95763" />
<rect x="40" y="200" width="10" height="10" fill="#D95763" />
<rect x="50" y="200" width="10" height="10" fill="#D95763" />
<rect x="60" y="200" width="10" height="10" fill="#D95763" />
<rect x="70" y="200" width="10" height="10" fill="#D95763" />
<rect x="80" y="200" width="10" height="10" fill="#D95763" />
<rect x="90" y="200" width="10" height="10" fill="#D95763" />
<rect x="100" y="200" width="10" height="10" fill="#D95763" />
<rect x="110" y="200" width="10" height="10" fill="#D95763" />
<rect x="120" y="200" width="10" height="10" fill="#D95763" />
<rect x="130" y="200" width="10" height="10" fill="#D95763" />
<rect x="140" y="200" width="10" height="10" fill="#D95763" />
<rect x="150" y="200" width="10" height="10" fill="#D95763" />
<rect x="160" y="200" width="10" height="10" fill="#D95763" />
<rect x="170" y="200" width="10" height="10" fill="#D95763" />
<rect x="180" y="200" width="10" height="10" fill="#D95763" />
<rect x="190" y="200" width="10" height="10" fill="#D95763" />
<rect x="200" y="200" width="10" height="10" fill="#D95763" />
<rect x="210" y="200" width="10" height="10" fill="#D95763" />
<rect x="220" y="200" width="10" height="10" fill="#D95763" />
<rect x="230" y="200" width="10" height="10" fill="#D95763" />
<rect x="240" y="200" width="10" height="10" fill="#D95763" />
<rect x="250" y="200" width="10" height="10" fill="#D95763" />
<rect x="260" y="200" width="10" height="10" fill="#D95763" />
<rect x="270" y="200" width="10" height="10" fill="#D95763" />
<rect x="280" y="200" width="10" height="10" fill="#D95763" />
<rect x="290" y="200" width="10" height="10" fill="#45283C" />
<rect x="20" y="210" width="10" height="10" fill="#45283C" />
<rect x="30" y="210" width="10" height="10" fill="#D95763" />
<rect x="40" y="210" width="10" height="10" fill="#D95763" />
<rect x="50" y="210" width="10" height="10" fill="#D95763" />
<rect x="60" y="210" width="10" height="10" fill="#D95763" />
<rect x="70" y="210" width="10" height="10" fill="#D95763" />
<rect x="80" y="210" width="10" height="10" fill="#D95763" />
<rect x="90" y="210" width="10" height="10" fill="#D95763" />
<rect x="100" y="210" width="10" height="10" fill="#D95763" />
<rect x="110" y="210" width="10" height="10" fill="#D95763" />
<rect x="120" y="210" width="10" height="10" fill="#D95763" />
<rect x="130" y="210" width="10" height="10" fill="#D95763" />
<rect x="140" y="210" width="10" height="10" fill="#D95763" />
<rect x="150" y="210" width="10" height="10" fill="#D95763" />
<rect x="160" y="210" width="10" height="10" fill="#D95763" />
<rect x="170" y="210" width="10" height="10" fill="#D95763" />
<rect x="180" y="210" width="10" height="10" fill="#D95763" />
<rect x="190" y="210" width="10" height="10" fill="#D95763" />
<rect x="200" y="210" width="10" height="10" fill="#D95763" />
<rect x="210" y="210" width="10" height="10" fill="#D95763" />
<rect x="220" y="210" width="10" height="10" fill="#D95763" />
<rect x="230" y="210" width="10" height="10" fill="#D95763" />
<rect x="240" y="210" width="10" height="10" fill="#D95763" />
<rect x="250" y="210" width="10" height="10" fill="#D95763" />
<rect x="260" y="210" width="10" height="10" fill="#D95763" />
<rect x="270" y="210" width="10" height="10" fill="#D95763" />
<rect x="280" y="210" width="10" height="10" fill="#D95763" />
<rect x="290" y="210" width="10" height="10" fill="#45283C" />
<rect x="20" y="220" width="10" height="10" fill="#45283C" />
<rect x="30" y="220" width="10" height="10" fill="#45283C" />
<rect x="40" y="220" width="10" height="10" fill="#45283C" />
<rect x="50" y="220" width="10" height="10" fill="#45283C" />
<rect x="60" y="220" width="10" height="10" fill="#45283C" />
<rect x="70" y="220" width="10" height="10" fill="#45283C" />
<rect x="80" y="220" width="10" height="10" fill="#45283C" />
<rect x="90" y="220" width="10" height="10" fill="#45283C" />
<rect x="100" y="220" width="10" height="10" fill="#45283C" />
<rect x="110" y="220" width="10" height="10" fill="#45283C" />
<rect x="120" y="220" width="10" height="10" fill="#45283C" />
<rect x="130" y="220" width="10" height="10" fill="#45283C" />
<rect x="140" y="220" width="10" height="10" fill="#45283C" />
<rect x="150" y="220" width="10" height="10" fill="#D95763" />
<rect x="160" y="220" width="10" height="10" fill="#D95763" />
<rect x="170" y="220" width="10" height="10" fill="#D95763" />
<rect x="180" y="220" width="10" height="10" fill="#45283C" />
<rect x="190" y="220" width="10" height="10" fill="#45283C" />
<rect x="200" y="220" width="10" height="10" fill="#45283C" />
<rect x="210" y="220" width="10" height="10" fill="#45283C" />
<rect x="220" y="220" width="10" height="10" fill="#45283C" />
<rect x="230" y="220" width="10" height="10" fill="#45283C" />
<rect x="240" y="220" width="10" height="10" fill="#45283C" />
<rect x="250" y="220" width="10" height="10" fill="#45283C" />
<rect x="260" y="220" width="10" height="10" fill="#45283C" />
<rect x="270" y="220" width="10" height="10" fill="#45283C" />
<rect x="280" y="220" width="10" height="10" fill="#45283C" />
<rect x="290" y="220" width="10" height="10" fill="#45283C" />
<rect x="20" y="230" width="10" height="10" fill="#45283C" />
<rect x="30" y="230" width="10" height="10" fill="#EEC39A" />
<rect x="40" y="230" width="10" height="10" fill="#EEC39A" />
<rect x="50" y="230" width="10" height="10" fill="#EEC39A" />
<rect x="60" y="230" width="10" height="10" fill="#EEC39A" />
<rect x="70" y="230" width="10" height="10" fill="#EEC39A" />
<rect x="80" y="230" width="10" height="10" fill="#EEC39A" />
<rect x="90" y="230" width="10" height="10" fill="#EEC39A" />
<rect x="100" y="230" width="10" height="10" fill="#EEC39A" />
<rect x="110" y="230" width="10" height="10" fill="#EEC39A" />
<rect x="120" y="230" width="10" height="10" fill="#EEC39A" />
<rect x="130" y="230" width="10" height="10" fill="#EEC39A" />
<rect x="140" y="230" width="10" height="10" fill="#45283C" />
<rect x="150" y="230" width="10" height="10" fill="#D95763" />
<rect x="160" y="230" width="10" height="10" fill="#D95763" />
<rect x="170" y="230" width="10" height="10" fill="#D95763" />
<rect x="180" y="230" width="10" height="10" fill="#45283C" />
<rect x="190" y="230" width="10" height="10" fill="#EEC39A" />
<rect x="200" y="230" width="10" height="10" fill="#EEC39A" />
<rect x="210" y="230" width="10" height="10" fill="#EEC39A" />
<rect x="220" y="230" width="10" height="10" fill="#EEC39A" />
<rect x="230" y="230" width="10" height="10" fill="#EEC39A" />
<rect x="240" y="230" width="10" height="10" fill="#EEC39A" />
<rect x="250" y="230" width="10" height="10" fill="#EEC39A" />
<rect x="260" y="230" width="10" height="10" fill="#EEC39A" />
<rect x="270" y="230" width="10" height="10" fill="#EEC39A" />
<rect x="280" y="230" width="10" height="10" fill="#EEC39A" />
<rect x="290" y="230" width="10" height="10" fill="#45283C" />
<rect x="20" y="240" width="10" height="10" fill="#45283C" />
<rect x="30" y="240" width="10" height="10" fill="#EEC39A" />
<rect x="40" y="240" width="10" height="10" fill="#EEC39A" />
<rect x="50" y="240" width="10" height="10" fill="#EEC39A" />
<rect x="60" y="240" width="10" height="10" fill="#EEC39A" />
<rect x="70" y="240" width="10" height="10" fill="#EEC39A" />
<rect x="80" y="240" width="10" height="10" fill="#EEC39A" />
<rect x="90" y="240" width="10" height="10" fill="#EEC39A" />
<rect x="100" y="240" width="10" height="10" fill="#EEC39A" />
<rect x="110" y="240" width="10" height="10" fill="#EEC39A" />
<rect x="120" y="240" width="10" height="10" fill="#EEC39A" />
<rect x="130" y="240" width="10" height="10" fill="#EEC39A" />
<rect x="140" y="240" width="10" height="10" fill="#45283C" />
<rect x="150" y="240" width="10" height="10" fill="#D95763" />
<rect x="160" y="240" width="10" height="10" fill="#D95763" />
<rect x="170" y="240" width="10" height="10" fill="#D95763" />
<rect x="180" y="240" width="10" height="10" fill="#45283C" />
<rect x="190" y="240" width="10" height="10" fill="#EEC39A" />
<rect x="200" y="240" width="10" height="10" fill="#EEC39A" />
<rect x="210" y="240" width="10" height="10" fill="#EEC39A" />
<rect x="220" y="240" width="10" height="10" fill="#EEC39A" />
<rect x="230" y="240" width="10" height="10" fill="#EEC39A" />
<rect x="240" y="240" width="10" height="10" fill="#EEC39A" />
<rect x="250" y="240" width="10" height="10" fill="#EEC39A" />
<rect x="260" y="240" width="10" height="10" fill="#EEC39A" />
<rect x="270" y="240" width="10" height="10" fill="#EEC39A" />
<rect x="280" y="240" width="10" height="10" fill="#EEC39A" />
<rect x="290" y="240" width="10" height="10" fill="#45283C" />
<rect x="20" y="250" width="10" height="10" fill="#45283C" />
<rect x="30" y="250" width="10" height="10" fill="#EEC39A" />
<rect x="40" y="250" width="10" height="10" fill="#EEC39A" />
<rect x="50" y="250" width="10" height="10" fill="#EEC39A" />
<rect x="60" y="250" width="10" height="10" fill="#EEC39A" />
<rect x="70" y="250" width="10" height="10" fill="#EEC39A" />
<rect x="80" y="250" width="10" height="10" fill="#EEC39A" />
<rect x="90" y="250" width="10" height="10" fill="#EEC39A" />
<rect x="100" y="250" width="10" height="10" fill="#EEC39A" />
<rect x="110" y="250" width="10" height="10" fill="#EEC39A" />
<rect x="120" y="250" width="10" height="10" fill="#EEC39A" />
<rect x="130" y="250" width="10" height="10" fill="#EEC39A" />
<rect x="140" y="250" width="10" height="10" fill="#45283C" />
<rect x="150" y="250" width="10" height="10" fill="#D95763" />
<rect x="160" y="250" width="10" height="10" fill="#D95763" />
<rect x="170" y="250" width="10" height="10" fill="#D95763" />
<rect x="180" y="250" width="10" height="10" fill="#45283C" />
<rect x="190" y="250" width="10" height="10" fill="#EEC39A" />
<rect x="200" y="250" width="10" height="10" fill="#EEC39A" />
<rect x="210" y="250" width="10" height="10" fill="#EEC39A" />
<rect x="220" y="250" width="10" height="10" fill="#EEC39A" />
<rect x="230" y="250" width="10" height="10" fill="#EEC39A" />
<rect x="240" y="250" width="10" height="10" fill="#EEC39A" />
<rect x="250" y="250" width="10" height="10" fill="#EEC39A" />
<rect x="260" y="250" width="10" height="10" fill="#EEC39A" />
<rect x="270" y="250" width="10" height="10" fill="#EEC39A" />
<rect x="280" y="250" width="10" height="10" fill="#EEC39A" />
<rect x="290" y="250" width="10" height="10" fill="#45283C" />
<rect x="20" y="260" width="10" height="10" fill="#45283C" />
<rect x="30" y="260" width="10" height="10" fill="#EEC39A" />
<rect x="40" y="260" width="10" height="10" fill="#EEC39A" />
<rect x="50" y="260" width="10" height="10" fill="#EEC39A" />
<rect x="60" y="260" width="10" height="10" fill="#EEC39A" />
<rect x="70" y="260" width="10" height="10" fill="#EEC39A" />
<rect x="80" y="260" width="10" height="10" fill="#EEC39A" />
<rect x="90" y="260" width="10" height="10" fill="#EEC39A" />
<rect x="100" y="260" width="10" height="10" fill="#EEC39A" />
<rect x="110" y="260" width="10" height="10" fill="#EEC39A" />
<rect x="120" y="260" width="10" height="10" fill="#EEC39A" />
<rect x="130" y="260" width="10" height="10" fill="#EEC39A" />
<rect x="140" y="260" width="10" height="10" fill="#45283C" />
<rect x="150" y="260" width="10" height="10" fill="#D95763" />
<rect x="160" y="260" width="10" height="10" fill="#D95763" />
<rect x="170" y="260" width="10" height="10" fill="#D95763" />
<rect x="180" y="260" width="10" height="10" fill="#45283C" />
<rect x="190" y="260" width="10" height="10" fill="#EEC39A" />
<rect x="200" y="260" width="10" height="10" fill="#EEC39A" />
<rect x="210" y="260" width="10" height="10" fill="#EEC39A" />
<rect x="220" y="260" width="10" height="10" fill="#EEC39A" />
<rect x="230" y="260" width="10" height="10" fill="#EEC39A" />
<rect x="240" y="260" width="10" height="10" fill="#EEC39A" />
<rect x="250" y="260" width="10" height="10" fill="#EEC39A" />
<rect x="260" y="260" width="10" height="10" fill="#EEC39A" />
<rect x="270" y="260" width="10" height="10" fill="#EEC39A" />
<rect x="280" y="260" width="10" height="10" fill="#EEC39A" />
<rect x="290" y="260" width="10" height="10" fill="#45283C" />
<rect x="20" y="270" width="10" height="10" fill="#45283C" />
<rect x="30" y="270" width="10" height="10" fill="#EEC39A" />
<rect x="40" y="270" width="10" height="10" fill="#EEC39A" />
<rect x="50" y="270" width="10" height="10" fill="#EEC39A" />
<rect x="60" y="270" width="10" height="10" fill="#EEC39A" />
<rect x="70" y="270" width="10" height="10" fill="#EEC39A" />
<rect x="80" y="270" width="10" height="10" fill="#EEC39A" />
<rect x="90" y="270" width="10" height="10" fill="#EEC39A" />
<rect x="100" y="270" width="10" height="10" fill="#EEC39A" />
<rect x="110" y="270" width="10" height="10" fill="#EEC39A" />
<rect x="120" y="270" width="10" height="10" fill="#EEC39A" />
<rect x="130" y="270" width="10" height="10" fill="#EEC39A" />
<rect x="140" y="270" width="10" height="10" fill="#45283C" />
<rect x="150" y="270" width="10" height="10" fill="#D95763" />
<rect x="160" y="270" width="10" height="10" fill="#D95763" />
<rect x="170" y="270" width="10" height="10" fill="#D95763" />
<rect x="180" y="270" width="10" height="10" fill="#45283C" />
<rect x="190" y="270" width="10" height="10" fill="#EEC39A" />
<rect x="200" y="270" width="10" height="10" fill="#EEC39A" />
<rect x="210" y="270" width="10" height="10" fill="#EEC39A" />
<rect x="220" y="270" width="10" height="10" fill="#EEC39A" />
<rect x="230" y="270" width="10" height="10" fill="#EEC39A" />
<rect x="240" y="270" width="10" height="10" fill="#EEC39A" />
<rect x="250" y="270" width="10" height="10" fill="#EEC39A" />
<rect x="260" y="270" width="10" height="10" fill="#EEC39A" />
<rect x="270" y="270" width="10" height="10" fill="#EEC39A" />
<rect x="280" y="270" width="10" height="10" fill="#EEC39A" />
<rect x="290" y="270" width="10" height="10" fill="#45283C" />
<rect x="20" y="280" width="10" height="10" fill="#45283C" />
<rect x="30" y="280" width="10" height="10" fill="#EEC39A" />
<rect x="40" y="280" width="10" height="10" fill="#EEC39A" />
<rect x="50" y="280" width="10" height="10" fill="#EEC39A" />
<rect x="60" y="280" width="10" height="10" fill="#EEC39A" />
<rect x="70" y="280" width="10" height="10" fill="#EEC39A" />
<rect x="80" y="280" width="10" height="10" fill="#EEC39A" />
<rect x="90" y="280" width="10" height="10" fill="#EEC39A" />
<rect x="100" y="280" width="10" height="10" fill="#EEC39A" />
<rect x="110" y="280" width="10" height="10" fill="#EEC39A" />
<rect x="120" y="280" width="10" height="10" fill="#EEC39A" />
<rect x="130" y="280" width="10" height="10" fill="#EEC39A" />
<rect x="140" y="280" width="10" height="10" fill="#45283C" />
<rect x="150" y="280" width="10" height="10" fill="#D95763" />
<rect x="160" y="280" width="10" height="10" fill="#D95763" />
<rect x="170" y="280" width="10" height="10" fill="#D95763" />
<rect x="180" y="280" width="10" height="10" fill="#45283C" />
<rect x="190" y="280" width="10" height="10" fill="#EEC39A" />
<rect x="200" y="280" width="10" height="10" fill="#EEC39A" />
<rect x="210" y="280" width="10" height="10" fill="#EEC39A" />
<rect x="220" y="280" width="10" height="10" fill="#EEC39A" />
<rect x="230" y="280" width="10" height="10" fill="#EEC39A" />
<rect x="240" y="280" width="10" height="10" fill="#EEC39A" />
<rect x="250" y="280" width="10" height="10" fill="#EEC39A" />
<rect x="260" y="280" width="10" height="10" fill="#EEC39A" />
<rect x="270" y="280" width="10" height="10" fill="#EEC39A" />
<rect x="280" y="280" width="10" height="10" fill="#EEC39A" />
<rect x="290" y="280" width="10" height="10" fill="#45283C" />
<rect x="20" y="290" width="10" height="10" fill="#45283C" />
<rect x="30" y="290" width="10" height="10" fill="#EEC39A" />
<rect x="40" y="290" width="10" height="10" fill="#EEC39A" />
<rect x="50" y="290" width="10" height="10" fill="#EEC39A" />
<rect x="60" y="290" width="10" height="10" fill="#EEC39A" />
<rect x="70" y="290" width="10" height="10" fill="#EEC39A" />
<rect x="80" y="290" width="10" height="10" fill="#EEC39A" />
<rect x="90" y="290" width="10" height="10" fill="#EEC39A" />
<rect x="100" y="290" width="10" height="10" fill="#EEC39A" />
<rect x="110" y="290" width="10" height="10" fill="#EEC39A" />
<rect x="120" y="290" width="10" height="10" fill="#EEC39A" />
<rect x="130" y="290" width="10" height="10" fill="#EEC39A" />
<rect x="140" y="290" width="10" height="10" fill="#45283C" />
<rect x="150" y="290" width="10" height="10" fill="#D95763" />
<rect x="160" y="290" width="10" height="10" fill="#D95763" />
<rect x="170" y="290" width="10" height="10" fill="#D95763" />
<rect x="180" y="290" width="10" height="10" fill="#45283C" />
<rect x="190" y="290" width="10" height="10" fill="#EEC39A" />
<rect x="200" y="290" width="10" height="10" fill="#EEC39A" />
<rect x="210" y="290" width="10" height="10" fill="#EEC39A" />
<rect x="220" y="290" width="10" height="10" fill="#EEC39A" />
<rect x="230" y="290" width="10" height="10" fill="#EEC39A" />
<rect x="240" y="290" width="10" height="10" fill="#EEC39A" />
<rect x="250" y="290" width="10" height="10" fill="#EEC39A" />
<rect x="260" y="290" width="10" height="10" fill="#EEC39A" />
<rect x="270" y="290" width="10" height="10" fill="#EEC39A" />
<rect x="280" y="290" width="10" height="10" fill="#EEC39A" />
<rect x="290" y="290" width="10" height="10" fill="#45283C" />
<rect x="20" y="300" width="10" height="10" fill="#45283C" />
<rect x="30" y="300" width="10" height="10" fill="#45283C" />
<rect x="40" y="300" width="10" height="10" fill="#45283C" />
<rect x="50" y="300" width="10" height="10" fill="#45283C" />
<rect x="60" y="300" width="10" height="10" fill="#45283C" />
<rect x="70" y="300" width="10" height="10" fill="#45283C" />
<rect x="80" y="300" width="10" height="10" fill="#45283C" />
<rect x="90" y="300" width="10" height="10" fill="#45283C" />
<rect x="100" y="300" width="10" height="10" fill="#45283C" />
<rect x="110" y="300" width="10" height="10" fill="#45283C" />
<rect x="120" y="300" width="10" height="10" fill="#45283C" />
<rect x="130" y="300" width="10" height="10" fill="#45283C" />
<rect x="140" y="300" width="10" height="10" fill="#45283C" />
<rect x="150" y="300" width="10" height="10" fill="#45283C" />
<rect x="160" y="300" width="10" height="10" fill="#45283C" />
<rect x="170" y="300" width="10" height="10" fill="#45283C" />
<rect x="180" y="300" width="10" height="10" fill="#45283C" />
<rect x="190" y="300" width="10" height="10" fill="#45283C" />
<rect x="200" y="300" width="10" height="10" fill="#45283C" />
<rect x="210" y="300" width="10" height="10" fill="#45283C" />
<rect x="220" y="300" width="10" height="10" fill="#45283C" />
<rect x="230" y="300" width="10" height="10" fill="#45283C" />
<rect x="240" y="300" width="10" height="10" fill="#45283C" />
<rect x="250" y="300" width="10" height="10" fill="#45283C" />
<rect x="260" y="300" width="10" height="10" fill="#45283C" />
<rect x="270" y="300" width="10" height="10" fill="#45283C" />
<rect x="280" y="300" width="10" height="10" fill="#45283C" />
<rect x="290" y="300" width="10" height="10" fill="#45283C" />
</svg>