<?xml version="1.0" encoding="UTF-8" ?>
<svg version="1.1" width="320" height="320" xmlns="http://www.w3.org/2000/svg" shape-rendering="crispEdges">
<rect x="90" y="0" width="10" height="10" fill="#45283C" />
<rect x="100" y="0" width="10" height="10" fill="#45283C" />
<rect x="80" y="10" width="10" height="10" fill="#45283C" />
<rect x="90" y="10" width="10" height="10" fill="#D95763" />
<rect x="100" y="10" width="10" height="10" fill="#D95763" />
<rect x="110" y="10" width="10" height="10" fill="#45283C" />
<rect x="140" y="10" width="10" height="10" fill="#45283C" />
<rect x="150" y="10" width="10" height="10" fill="#45283C" />
<rect x="160" y="10" width="10" height="10" fill="#45283C" />
<rect x="170" y="10" width="10" height="10" fill="#45283C" />
<rect x="180" y="10" width="10" height="10" fill="#45283C" />
<rect x="230" y="10" width="10" height="10" fill="#45283C" />
<rect x="240" y="10" width="10" height="10" fill="#45283C" />
<rect x="70" y="20" width="10" height="10" fill="#45283C" />
<rect x="80" y="20" width="10" height="10" fill="#D95763" />
<rect x="90" y="20" width="10" height="10" fill="#D95763" />
<rect x="100" y="20" width="10" height="10" fill="#D95763" />
<rect x="110" y="20" width="10" height="10" fill="#D95763" />
<rect x="120" y="20" width="10" height="10" fill="#45283C" />
<rect x="130" y="20" width="10" height="10" fill="#45283C" />
<rect x="140" y="20" width="10" height="10" fill="#D95763" />
<rect x="150" y="20" width="10" height="10" fill="#D95763" />
<rect x="160" y="20" width="10" height="10" fill="#D95763" />
<rect x="170" y="20" width="10" height="10" fill="#D95763" />
<rect x="180" y="20" width="10" height="10" fill="#D95763" />
<rect x="190" y="20" width="10" height="10" fill="#45283C" />
<rect x="210" y="20" width="10" height="10" fill="#45283C" />
<rect x="220" y="20" width="10" height="10" fill="#45283C" />
<rect x="230" y="20" width="10" height="10" fill="#D95763" />
<rect x="240" y="20" width="10" height="10" fill="#D95763" />
<rect x="250" y="20" width="10" height="10" fill="#45283C" />
<rect x="70" y="30" width="10" height="10" fill="#45283C" />
<rect x="80" y="30" width="10" height="10" fill="#D95763" />
<rect x="90" y="30" width="10" height="10" fill="#D95763" />
<rect x="100" y="30" width="10" height="10" fill="#D95763" />
<rect x="110" y="30" width="10" height="10" fill="#D95763" />
<rect x="120" y="30" width="10" height="10" fill="#D95763" />
<rect x="130" y="30" width="10" height="10" fill="#45283C" />
<rect x="140" y="30" width="10" height="10" fill="#D95763" />
<rect x="150" y="30" width="10" height="10" fill="#D95763" />
<rect x="160" y="30" width="10" height="10" fill="#D95763" />
<rect x="170" y="30" width="10" height="10" fill="#D95763" />
<rect x="180" y="30" width="10" height="10" fill="#D95763" />
<rect x="190" y="30" width="10" height="10" fill="#45283C" />
<rect x="200" y="30" width="10" height="10" fill="#45283C" />
<rect x="210" y="30" width="10" height="10" fill="#D95763" />
<rect x="220" y="30" width="10" height="10" fill="#D95763" />
<rect x="230" y="30" width="10" height="10" fill="#D95763" />
<rect x="240" y="30" width="10" height="10" fill="#D95763" />
<rect x="250" y="30" width="10" height="10" fill="#45283C" />
<rect x="70" y="40" width="10" height="10" fill="#45283C" />
<rect x="80" y="40" width="10" height="10" fill="#D95763" />
<rect x="90" y="40" width="10" height="10" fill="#D95763" />
<rect x="100" y="40" width="10" height="10" fill="#D95763" />
<rect x="110" y="40" width="10" height="10" fill="#D95763" />
<rect x="120" y="40" width="10" height="10" fill="#D95763" />
<rect x="130" y="40" width="10" height="10" fill="#45283C" />
<rect x="140" y="40" width="10" height="10" fill="#D95763" />
<rect x="150" y="40" width="10" height="10" fill="#D95763" />
<rect x="160" y="40" width="10" height="10" fill="#D95763" />
<rect x="170" y="40" width="10" height="10" fill="#D95763" />
<rect x="180" y="40" width="10" height="10" fill="#D95763" />
<rect x="190" y="40" width="10" height="10" fill="#45283C" />
<rect x="200" y="40" width="10" height="10" fill="#D95763" />
<rect x="210" y="40" width="10" height="10" fill="#D95763" />
<rect x="220" y="40" width="10" height="10" fill="#D95763" />
<rect x="230" y="40" width="10" height="10" fill="#D95763" />
<rect x="240" y="40" width="10" height="10" fill="#D95763" />
<rect x="250" y="40" width="10" height="10" fill="#45283C" />
<rect x="10" y="50" width="10" height="10" fill="#45283C" />
<rect x="20" y="50" width="10" height="10" fill="#45283C" />
<rect x="30" y="50" width="10" height="10" fill="#45283C" />
<rect x="40" y="50" width="10" height="10" fill="#45283C" />
<rect x="50" y="50" width="10" height="10" fill="#45283C" />
<rect x="60" y="50" width="10" height="10" fill="#45283C" />
<rect x="70" y="50" width="10" height="10" fill="#45283C" />
<rect x="80" y="50" width="10" height="10" fill="#45283C" />
<rect x="90" y="50" width="10" height="10" fill="#D95763" />
<rect x="100" y="50" width="10" height="10" fill="#D95763" />
<rect x="110" y="50" width="10" height="10" fill="#D95763" />
<rect x="120" y="50" width="10" height="10" fill="#45283C" />
<rect x="130" y="50" width="10" height="10" fill="#45283C" />
<rect x="140" y="50" width="10" height="10" fill="#45283C" />
<rect x="150" y="50" width="10" height="10" fill="#45283C" />
<rect x="160" y="50" width="10" height="10" fill="#45283C" />
<rect x="170" y="50" width="10" height="10" fill="#45283C" />
<rect x="180" y="50" width="10" height="10" fill="#45283C" />
<rect x="190" y="50" width="10" height="10" fill="#45283C" />
<rect x="200" y="50" width="10" height="10" fill="#D95763" />
<rect x="210" y="50" width="10" height="10" fill="#D95763" />
<rect x="220" y="50" width="10" height="10" fill="#D95763" />
<rect x="230" y="50" width="10" height="10" fill="#D95763" />
<rect x="240" y="50" width="10" height="10" fill="#D95763" />
<rect x="250" y="50" width="10" height="10" fill="#45283C" />
<rect x="260" y="50" width="10" height="10" fill="#45283C" />
<rect x="270" y="50" width="10" height="10" fill="#45283C" />
<rect x="280" y="50" width="10" height="10" fill="#45283C" />
<rect x="290" y="50" width="10" height="10" fill="#45283C" />
<rect x="300" y="50" width="10" height="10" fill="#45283C" />
<rect x="10" y="60" width="10" height="10" fill="#45283C" />
<rect x="20" y="60" width="10" height="10" fill="#EEC39A" />
<rect x="30" y="60" width="10" height="10" fill="#EEC39A" />
<rect x="40" y="60" width="10" height="10" fill="#EEC39A" />
<rect x="50" y="60" width="10" height="10" fill="#EEC39A" />
<rect x="60" y="60" width="10" height="10" fill="#EEC39A" />
<rect x="70" y="60" width="10" height="10" fill="#EEC39A" />
<rect x="80" y="60" width="10" height="10" fill="#EEC39A" />
<rect x="90" y="60" width="10" height="10" fill="#45283C" />
<rect x="100" y="60" width="10" height="10" fill="#45283C" />
<rect x="110" y="60" width="10" height="10" fill="#45283C" />
<rect x="120" y="60" width="10" height="10" fill="#45283C" />
<rect x="130" y="60" width="10" height="10" fill="#45283C" />
<rect x="140" y="60" width="10" height="10" fill="#D95763" />
<rect x="150" y="60" width="10" height="10" fill="#D95763" />
<rect x="160" y="60" width="10" height="10" fill="#45283C" />
<rect x="170" y="60" width="10" height="10" fill="#D95763" />
<rect x="180" y="60" width="10" height="10" fill="#D95763" />
<rect x="190" y="60" width="10" height="10" fill="#45283C" />
<rect x="200" y="60" width="10" height="10" fill="#45283C" />
<rect x="210" y="60" width="10" height="10" fill="#D95763" />
<rect x="220" y="60" width="10" height="10" fill="#D95763" />
<rect x="230" y="60" width="10" height="10" fill="#D95763" />
<rect x="240" y="60" width="10" height="10" fill="#45283C" />
<rect x="250" y="60" width="10" height="10" fill="#EEC39A" />
<rect x="260" y="60" width="10" height="10" fill="#EEC39A" />
<rect x="270" y="60" width="10" height="10" fill="#EEC39A" />
<rect x="280" y="60" width="10" height="10" fill="#EEC39A" />
<rect x="290" y="60" width="10" height="10" fill="#EEC39A" />
<rect x="300" y="60" width="10" height="10" fill="#45283C" />
<rect x="10" y="70" width="10" height="10" fill="#45283C" />
<rect x="20" y="70" width="10" height="10" fill="#EEC39A" />
<rect x="30" y="70" width="10" height="10" fill="#EEC39A" />
<rect x="40" y="70" width="10" height="10" fill="#EEC39A" />
<rect x="50" y="70" width="10" height="10" fill="#EEC39A" />
<rect x="60" y="70" width="10" height="10" fill="#EEC39A" />
<rect x="70" y="70" width="10" height="10" fill="#EEC39A" />
<rect x="80" y="70" width="10" height="10" fill="#EEC39A" />
<rect x="90" y="70" width="10" height="10" fill="#EEC39A" />
<rect x="100" y="70" width="10" height="10" fill="#EEC39A" />
<rect x="110" y="70" width="10" height="10" fill="#EEC39A" />
<rect x="120" y="70" width="10" height="10" fill="#45283C" />
<rect x="130" y="70" width="10" height="10" fill="#D95763" />
<rect x="140" y="70" width="10" height="10" fill="#D95763" />
<rect x="150" y="70" width="10" height="10" fill="#D95763" />
<rect x="160" y="70" width="10" height="10" fill="#45283C" />
<rect x="170" y="70" width="10" height="10" fill="#D95763" />
<rect x="180" y="70" width="10" height="10" fill="#D95763" />
<rect x="190" y="70" width="10" height="10" fill="#45283C" />
<rect x="200" y="70" width="10" height="10" fill="#EEC39A" />
<rect x="210" y="70" width="10" height="10" fill="#45283C" />
<rect x="220" y="70" width="10" height="10" fill="#45283C" />
<rect x="230" y="70" width="10" height="10" fill="#45283C" />
<rect x="240" y="70" width="10" height="10" fill="#EEC39A" />
<rect x="250" y="70" width="10" height="10" fill="#EEC39A" />
<rect x="260" y="70" width="10" height="10" fill="#EEC39A" />
<rect x="270" y="70" width="10" height="10" fill="#EEC39A" />
<rect x="280" y="70" width="10" height="10" fill="#EEC39A" />
<rect x="290" y="70" width="10" height="10" fill="#EEC39A" />
<rect x="300" y="70" width="10" height="10" fill="#45283C" />
<rect x="10" y="80" width="10" height="10" fill="#45283C" />
<rect x="20" y="80" width="10" height="10" fill="#EEC39A" />
<rect x="30" y="80" width="10" height="10" fill="#EEC39A" />
<rect x="40" y="80" width="10" height="10" fill="#EEC39A" />
<rect x="50" y="80" width="10" height="10" fill="#EEC39A" />
<rect x="60" y="80" width="10" height="10" fill="#EEC39A" />
<rect x="70" y="80" width="10" height="10" fill="#EEC39A" />
<rect x="80" y="80" width="10" height="10" fill="#EEC39A" />
<rect x="90" y="80" width="10" height="10" fill="#EEC39A" />
<rect x="100" y="80" width="10" height="10" fill="#EEC39A" />
<rect x="110" y="80" width="10" height="10" fill="#EEC39A" />
<rect x="120" y="80" width="10" height="10" fill="#45283C" />
<rect x="130" y="80" width="10" height="10" fill="#D95763" />
<rect x="140" y="80" width="10" height="10" fill="#D95763" />
<rect x="150" y="80" width="10" height="10" fill="#45283C" />
<rect x="160" y="80" width="10" height="10" fill="#D95763" />
<rect x="170" y="80" width="10" height="10" fill="#45283C" />
<rect x="180" y="80" width="10" height="10" fill="#D95763" />
<rect x="190" y="80" width="10" height="10" fill="#D95763" />
<rect x="200" y="80" width="10" height="10" fill="#45283C" />
<rect x="210" y="80" width="10" height="10" fill="#EEC39A" />
<rect x="220" y="80" width="10" height="10" fill="#EEC39A" />
<rect x="230" y="80" width="10" height="10" fill="#EEC39A" />
<rect x="240" y="80" width="10" height="10" fill="#EEC39A" />
<rect x="250" y="80" width="10" height="10" fill="#EEC39A" />
<rect x="260" y="80" width="10" height="10" fill="#EEC39A" />
<rect x="270" y="80" width="10" height="10" fill="#EEC39A" />
<rect x="280" y="80" width="10" height="10" fill="#EEC39A" />
<rect x="290" y="80" width="10" height="10" fill="#EEC39A" />
<rect x="300" y="80" width="10" height="10" fill="#45283C" />
<rect x="10" y="90" width="10" height="10" fill="#45283C" />
<rect x="20" y="90" width="10" height="10" fill="#EEC39A" />
<rect x="30" y="90" width="10" height="10" fill="#EEC39A" />
<rect x="40" y="90" width="10" height="10" fill="#EEC39A" />
<rect x="50" y="90" width="10" height="10" fill="#EEC39A" />
<rect x="60" y="90" width="10" height="10" fill="#EEC39A" />
<rect x="70" y="90" width="10" height="10" fill="#EEC39A" />
<rect x="80" y="90" width="10" height="10" fill="#EEC39A" />
<rect x="90" y="90" width="10" height="10" fill="#EEC39A" />
<rect x="100" y="90" width="10" height="10" fill="#EEC39A" />
<rect x="110" y="90" width="10" height="10" fill="#45283C" />
<rect x="120" y="90" width="10" height="10" fill="#D95763" />
<rect x="130" y="90" width="10" height="10" fill="#D95763" />
<rect x="140" y="90" width="10" height="10" fill="#D95763" />
<rect x="150" y="90" width="10" height="10" fill="#45283C" />
<rect x="160" y="90" width="10" height="10" fill="#D95763" />
<rect x="170" y="90" width="10" height="10" fill="#45283C" />
<rect x="180" y="90" width="10" height="10" fill="#D95763" />
<rect x="190" y="90" width="10" height="10" fill="#D95763" />
<rect x="200" y="90" width="10" height="10" fill="#D95763" />
<rect x="210" y="90" width="10" height="10" fill="#45283C" />
<rect x="220" y="90" width="10" height="10" fill="#EEC39A" />
<rect x="230" y="90" width="10" height="10" fill="#EEC39A" />
<rect x="240" y="90" width="10" height="10" fill="#EEC39A" />
<rect x="250" y="90" width="10" height="10" fill="#EEC39A" />
<rect x="260" y="90" width="10" height="10" fill="#EEC39A" />
<rect x="270" y="90" width="10" height="10" fill="#EEC39A" />
<rect x="280" y="90" width="10" height="10" fill="#EEC39A" />
<rect x="290" y="90" width="10" height="10" fill="#EEC39A" />
<rect x="300" y="90" width="10" height="10" fill="#45283C" />
<rect x="10" y="100" width="10" height="10" fill="#45283C" />
<rect x="20" y="100" width="10" height="10" fill="#EEC39A" />
<rect x="30" y="100" width="10" height="10" fill="#EEC39A" />
<rect x="40" y="100" width="10" height="10" fill="#EEC39A" />
<rect x="50" y="100" width="10" height="10" fill="#EEC39A" />
<rect x="60" y="100" width="10" height="10" fill="#EEC39A" />
<rect x="70" y="100" width="10" height="10" fill="#EEC39A" />
<rect x="80" y="100" width="10" height="10" fill="#EEC39A" />
<rect x="90" y="100" width="10" height="10" fill="#EEC39A" />
<rect x="100" y="100" width="10" height="10" fill="#EEC39A" />
<rect x="110" y="100" width="10" height="10" fill="#EEC39A" />
<rect x="120" y="100" width="10" height="10" fill="#45283C" />
<rect x="130" y="100" width="10" height="10" fill="#45283C" />
<rect x="140" y="100" width="10" height="10" fill="#45283C" />
<rect x="150" y="100" width="10" height="10" fill="#D95763" />
<rect x="160" y="100" width="10" height="10" fill="#D95763" />
<rect x="170" y="100" width="10" height="10" fill="#D95763" />
<rect x="180" y="100" width="10" height="10" fill="#45283C" />
<rect x="190" y="100" width="10" height="10" fill="#45283C" />
<rect x="200" y="100" width="10" height="10" fill="#45283C" />
<rect x="210" y="100" width="10" height="10" fill="#EEC39A" />
<rect x="220" y="100" width="10" height="10" fill="#EEC39A" />
<rect x="230" y="100" width="10" height="10" fill="#EEC39A" />
<rect x="240" y="100" width="10" height="10" fill="#EEC39A" />
<rect x="250" y="100" width="10" height="10" fill="#EEC39A" />
<rect x="260" y="100" width="10" height="10" fill="#EEC39A" />
<rect x="270" y="100" width="10" height="10" fill="#EEC39A" />
<rect x="280" y="100" width="10" height="10" fill="#EEC39A" />
<rect x="290" y="100" width="10" height="10" fill="#EEC39A" />
<rect x="300" y="100" width="10" height="10" fill="#45283C" />
<rect x="10" y="110" width="10" height="10" fill="#45283C" />
<rect x="20" y="110" width="10" height="10" fill="#EEC39A" />
<rect x="30" y="110" width="10" height="10" fill="#EEC39A" />
<rect x="40" y="110" width="10" height="10" fill="#EEC39A" />
<rect x="50" y="110" width="10" height="10" fill="#EEC39A" />
<rect x="60" y="110" width="10" height="10" fill="#EEC39A" />
<rect x="70" y="110" width="10" height="10" fill="#EEC39A" />
<rect x="80" y="110" width="10" height="10" fill="#EEC39A" />
<rect x="90" y="110" width="10" height="10" fill="#EEC39A" />
<rect x="100" y="110" width="10" height="10" fill="#EEC39A" />
<rect x="110" y="110" width="10" height="10" fill="#EEC39A" />
<rect x="120" y="110" width="10" height="10" fill="#EEC39A" />
<rect x="130" y="110" width="10" height="10" fill="#EEC39A" />
<rect x="140" y="110" width="10" height="10" fill="#45283C" />
<rect x="150" y="110" width="10" height="10" fill="#D95763" />
<rect x="160" y="110" width="10" height="10" fill="#D95763" />
<rect x="170" y="110" width="10" height="10" fill="#D95763" />
<rect x="180" y="110" width="10" height="10" fill="#45283C" />
<rect x="190" y="110" width="10" height="10" fill="#EEC39A" />
<rect x="200" y="110" width="10" height="10" fill="#EEC39A" />
<rect x="210" y="110" width="10" height="10" fill="#EEC39A" />
<rect x="220" y="110" width="10" height="10" fill="#EEC39A" />
<rect x="230" y="110" width="10" height="10" fill="#EEC39A" />
<rect x="240" y="110" width="10" height="10" fill="#EEC39A" />
<rect x="250" y="110" width="10" height="10" fill="#EEC39A" />
<rect x="260" y="110" width="10" height="10" fill="#EEC39A" />
<rect x="270" y="110" width="10" height="10" fill="#EEC39A" />
<rect x="280" y="110" width="10" height="10" fill="#EEC39A" />
<rect x="290" y="110" width="10" height="10" fill="#EEC39A" />
<rect x="300" y="110" width="10" height="10" fill="#45283C" />
<rect x="10" y="120" width="10" height="10" fill="#45283C" />
<rect x="20" y="120" width="10" height="10" fill="#45283C" />
<rect x="30" y="120" width="10" height="10" fill="#45283C" />
<rect x="40" y="120" width="10" height="10" fill="#45283C" />
<rect x="50" y="120" width="10" height="10" fill="#45283C" />
<rect x="60" y="120" width="10" height="10" fill="#45283C" />
<rect x="70" y="120" width="10" height="10" fill="#45283C" />
<rect x="80" y="120" width="10" height="10" fill="#45283C" />
<rect x="90" y="120" width="10" height="10" fill="#45283C" />
<rect x="100" y="120" width="10" height="10" fill="#45283C" />
<rect x="110" y="120" width="10" height="10" fill="#45283C" />
<rect x="120" y="120" width="10" height="10" fill="#45283C" />
<rect x="130" y="120" width="10" height="10" fill="#45283C" />
<rect x="140" y="120" width="10" height="10" fill="#45283C" />
<rect x="150" y="120" width="10" height="10" fill="#45283C" />
<rect x="160" y="120" width="10" height="10" fill="#45283C" />
<rect x="170" y="120" width="10" height="10" fill="#45283C" />
<rect x="180" y="120" width="10" height="10" fill="#45283C" />
<rect x="190" y="120" width="10" height="10" fill="#45283C" />
<rect x="200" y="120" width="10" height="10" fill="#45283C" />
<rect x="210" y="120" width="10" height="10" fill="#45283C" />
<rect x="220" y="120" width="10" height="10" fill="#45283C" />
<rect x="230" y="120" width="10" height="10" fill="#45283C" />
<rect x="240" y="120" width="10" height="10" fill="#45283C" />
<rect x="250" y="120" width="10" height="10" fill="#45283C" />
<rect x="260" y="120" width="10" height="10" fill="#45283C" />
<rect x="270" y="120" width="10" height="10" fill="#45283C" />
<rect x="280" y="120" width="10" height="10" fill="#45283C" />
<rect x="290" y="120" width="10" height="10" fill="#45283C" />
<rect x="300" y="120" width="10" height="10" fill="#45283C" />
</svg>